<?xml version="1.0" encoding="UTF-8" standalone="no"?>
<!-- Created with Inkscape (http://www.inkscape.org/) -->

<svg
   version="1.1"
   id="svg1"
   width="1333.3333"
   height="560"
   viewBox="0 0 1333.3333 560"
   sodipodi:docname="flutterfly.svg"
   inkscape:version="1.3.2 (091e20ef0f, 2023-11-25, custom)"
   inkscape:export-filename="flutterfly(icon).svg"
   inkscape:export-xdpi="300"
   inkscape:export-ydpi="300"
   xmlns:inkscape="http://www.inkscape.org/namespaces/inkscape"
   xmlns:sodipodi="http://sodipodi.sourceforge.net/DTD/sodipodi-0.dtd"
   xmlns="http://www.w3.org/2000/svg"
   xmlns:svg="http://www.w3.org/2000/svg">
  <defs
     id="defs1">
    <inkscape:path-effect
       effect="fillet_chamfer"
       id="path-effect134"
       is_visible="true"
       lpeversion="1"
       nodesatellites_param="F,0,0,1,0,1.5571733,0,1 @ F,0,0,1,0,12.41173,0,1 @ F,0,0,1,0,2.0830893,0,1"
       radius="0"
       unit="px"
       method="auto"
       mode="F"
       chamfer_steps="1"
       flexible="false"
       use_knot_distance="true"
       apply_no_radius="true"
       apply_with_radius="true"
       only_selected="false"
       hide_knots="false" />
    <inkscape:path-effect
       effect="fillet_chamfer"
       id="path-effect133"
       is_visible="true"
       lpeversion="1"
       nodesatellites_param="F,0,0,1,0,0,0,1 @ F,0,0,1,0,26.689302,0,1 @ F,0,0,1,0,21.87348,0,1 @ F,0,0,1,0,0,0,1"
       radius="0"
       unit="px"
       method="auto"
       mode="F"
       chamfer_steps="1"
       flexible="false"
       use_knot_distance="true"
       apply_no_radius="true"
       apply_with_radius="true"
       only_selected="false"
       hide_knots="false" />
    <inkscape:path-effect
       effect="fillet_chamfer"
       id="path-effect132"
       is_visible="true"
       lpeversion="1"
       nodesatellites_param="F,0,0,1,0,0,0,1 @ F,0,0,1,0,0,0,1 @ F,0,0,1,0,0.53369043,0,1"
       radius="0"
       unit="px"
       method="auto"
       mode="F"
       chamfer_steps="1"
       flexible="false"
       use_knot_distance="true"
       apply_no_radius="true"
       apply_with_radius="true"
       only_selected="false"
       hide_knots="false" />
    <inkscape:path-effect
       effect="fillet_chamfer"
       id="path-effect131"
       is_visible="true"
       lpeversion="1"
       nodesatellites_param="F,0,0,1,0,20.303673,0,1 @ F,0,0,1,0,0.64111047,0,1 @ F,0,0,1,0,3.2130387,0,1 @ F,0,0,1,0,0.23916846,0,1 @ F,0,0,1,0,0.34143323,0,1"
       radius="0"
       unit="px"
       method="auto"
       mode="F"
       chamfer_steps="1"
       flexible="false"
       use_knot_distance="true"
       apply_no_radius="true"
       apply_with_radius="true"
       only_selected="false"
       hide_knots="false" />
    <inkscape:path-effect
       effect="fillet_chamfer"
       id="path-effect130"
       is_visible="true"
       lpeversion="1"
       nodesatellites_param="F,0,0,1,0,17.413066,0,1 @ F,0,0,1,0,2.9703283,0,1 @ F,0,0,1,0,0,0,1 @ F,0,0,1,0,2.5938312,0,1 @ F,0,0,1,0,1.6924177,0,1"
       radius="0"
       unit="px"
       method="auto"
       mode="F"
       chamfer_steps="1"
       flexible="false"
       use_knot_distance="true"
       apply_no_radius="true"
       apply_with_radius="true"
       only_selected="false"
       hide_knots="false" />
    <inkscape:path-effect
       effect="fillet_chamfer"
       id="path-effect129"
       is_visible="true"
       lpeversion="1"
       nodesatellites_param="F,0,0,1,0,11.081745,0,1 @ F,0,0,1,0,0.36007771,0,1 @ F,0,0,1,0,1.2430373,0,1"
       radius="0"
       unit="px"
       method="auto"
       mode="F"
       chamfer_steps="1"
       flexible="false"
       use_knot_distance="true"
       apply_no_radius="true"
       apply_with_radius="true"
       only_selected="false"
       hide_knots="false" />
    <inkscape:path-effect
       effect="fillet_chamfer"
       id="path-effect128"
       is_visible="true"
       lpeversion="1"
       nodesatellites_param="F,0,0,1,0,0.41602011,0,1 @ F,0,0,1,0,3.2433734,0,1 @ F,0,0,1,0,1.0856388,0,1 @ F,0,0,1,0,11.717096,0,1 @ F,0,0,1,0,1.3427389,0,1"
       radius="0"
       unit="px"
       method="auto"
       mode="F"
       chamfer_steps="1"
       flexible="false"
       use_knot_distance="true"
       apply_no_radius="true"
       apply_with_radius="true"
       only_selected="false"
       hide_knots="false" />
    <inkscape:path-effect
       effect="fillet_chamfer"
       id="path-effect127"
       is_visible="true"
       lpeversion="1"
       nodesatellites_param="F,0,0,1,0,0,0,1 @ F,0,0,1,0,1.7795239,0,1 @ F,0,0,1,0,17.056058,0,1 @ F,0,0,1,0,28.868927,0,1"
       radius="0"
       unit="px"
       method="auto"
       mode="F"
       chamfer_steps="1"
       flexible="false"
       use_knot_distance="true"
       apply_no_radius="true"
       apply_with_radius="true"
       only_selected="false"
       hide_knots="false" />
    <inkscape:path-effect
       effect="fillet_chamfer"
       id="path-effect123"
       is_visible="true"
       lpeversion="1"
       nodesatellites_param="F,0,0,1,0,0,0,1 @ F,0,0,1,0,9.6046186,0,1 @ F,0,0,1,0,0,0,1 @ F,0,0,1,0,0,0,1 @ F,0,0,1,0,0,0,1 @ F,0,0,1,0,5.3059197,0,1 @ F,0,0,1,0,0,0,1 @ F,0,0,1,0,4.3565488,0,1 @ F,0,0,1,0,6.1722632,0,1 @ F,0,0,1,0,1.3558656,0,1 @ F,0,0,1,0,1.7448996,0,1 @ F,0,0,1,0,0,0,1 @ F,0,0,1,0,5.1110706,0,1 @ F,0,0,1,0,0,0,1 | F,0,0,1,0,0,0,1 @ F,0,0,1,0,2.3605441,0,1 @ F,0,0,1,0,1.7147142,0,1 @ F,0,0,1,0,3.6167451,0,1 @ F,0,0,1,0,0,0,1 @ F,0,0,1,0,0,0,1 @ F,0,0,1,0,0,0,1 @ F,0,0,1,0,9.3701152,0,1 @ F,0,0,1,0,0,0,1 @ F,0,0,1,0,5.1151508,0,1"
       radius="0"
       unit="px"
       method="auto"
       mode="F"
       chamfer_steps="1"
       flexible="false"
       use_knot_distance="true"
       apply_no_radius="true"
       apply_with_radius="true"
       only_selected="false"
       hide_knots="false" />
  </defs>
  <sodipodi:namedview
     id="namedview1"
     pagecolor="#505050"
     bordercolor="#eeeeee"
     borderopacity="1"
     inkscape:showpageshadow="0"
     inkscape:pageopacity="0"
     inkscape:pagecheckerboard="0"
     inkscape:deskcolor="#505050"
     inkscape:zoom="0.70710678"
     inkscape:cx="692.25754"
     inkscape:cy="270.8219"
     inkscape:window-width="940"
     inkscape:window-height="1015"
     inkscape:window-x="0"
     inkscape:window-y="0"
     inkscape:window-maximized="1"
     inkscape:current-layer="layer7"
     inkscape:export-bgcolor="#ffffff00"
     showguides="false" />
  <g
     inkscape:groupmode="layer"
     id="layer7"
     inkscape:label="Image 1"
     style="display:inline">
    <rect
       style="display:inline;opacity:1;fill:#ffffff;fill-opacity:1;stroke:#000000;stroke-width:1.3;stroke-dasharray:none;stroke-opacity:1;paint-order:stroke fill markers"
       id="rect65"
       width="1326.2471"
       height="556.14209"
       x="-2.4766347"
       y="2.3298712" />
  </g>
  <g
     inkscape:groupmode="layer"
     inkscape:label="Image"
     id="g1"
     style="display:inline">
    <path
       style="opacity:1;fill:#2974b3;fill-opacity:1"
       d="m 637.31375,134.79786 -0.21073,-26.83756 a 5.2213192,5.2213192 156.73479 0 1 8.84291,-3.802 l 31.94612,30.76334 a 0.8395868,0.8395868 111.96762 0 1 -0.58261,1.44436 l -38.42629,-0.0106 a 1.5698804,1.5698804 44.782947 0 1 -1.5694,-1.55756 z"
       id="path7"
       sodipodi:nodetypes="cccc"
       inkscape:path-effect="#path-effect134"
       inkscape:original-d="m 637.32598,136.35499 -0.32041,-40.80604 42.38696,40.81762 z"
       transform="matrix(0.98997334,0,0,0.84100581,6.3880134,21.681403)" />
    <path
       style="opacity:1;fill:#2974b3;fill-opacity:1"
       d="m 835.38894,316.89783 50.21833,-49.41147 a 63.685781,63.685781 112.72653 0 0 19.0193,-45.40803 l -0.0199,-104.17824 a 9.1358575,9.1358575 22.65779 0 0 -15.55896,-6.49499 l -54.83729,54.21578 z"
       id="path8"
       sodipodi:nodetypes="ccccc"
       inkscape:path-effect="#path-effect133"
       inkscape:original-d="m 835.38894,316.89783 69.24273,-68.1302 -0.0292,-152.741017 -70.39207,69.594267 z"
       transform="matrix(1,0,0,1.0043167,0,-0.46950737)" />
    <path
       style="opacity:1;fill:#60c9f8;fill-opacity:1"
       d="m 830.55368,170.04751 -59.3826,59.96777 59.21723,58.73624 a 0.22177637,0.22177637 157.33181 0 0 0.37795,-0.15786 z"
       id="path9"
       sodipodi:nodetypes="cccc"
       inkscape:path-effect="#path-effect132"
       inkscape:original-d="m 830.55368,170.04751 -59.3826,59.96777 59.59614,59.11207 z"
       transform="matrix(1.0130952,0,0,1,-10.47671,0)" />
    <path
       style="opacity:1;fill:#60c9f8;fill-opacity:1"
       d="m 637.6212,228.1877 -0.21867,-88.2118 a 0.65641233,0.65641233 134.1823 0 1 0.6393,-0.65782 l 37.90206,-0.9881 a 7.5429154,7.5429154 21.579078 0 1 5.49769,2.17436 l 89.81758,88.7316 a 0.23622887,0.23622887 90.005798 0 1 -4e-5,0.33614 l -76.05298,75.10302 a 0.34621841,0.34621841 179.96138 0 1 -0.48621,3.3e-4 L 652.13756,262.73818 A 48.662346,48.662346 67.210324 0 1 637.6212,228.1877 Z"
       id="path10"
       sodipodi:nodetypes="cccccc"
       inkscape:path-effect="#path-effect131"
       inkscape:original-d="m 637.67153,248.49131 -0.27059,-109.15652 41.7549,-1.08855 92.27346,91.15779 -76.4661,75.51098 z"
       transform="matrix(1.0077001,0,0,1.0075803,-4.9080629,-1.0485602)" />
    <path
       style="opacity:1;fill:#31baf8;fill-opacity:1"
       d="m 784.12556,369.11687 45.10793,-45.56025 a 7.092887,7.092887 111.99142 0 0 2.05193,-5.08088 l -0.37371,-29.27661 -57.58376,-58.00718 a 2.6026375,2.6026375 0.30697739 0 0 -3.67438,-0.0197 l -73.57185,72.54137 a 1.67606,1.67606 90.125842 0 0 -0.005,2.38178 l 63.45215,63.11552 a 17.372559,17.372559 179.78089 0 0 24.59692,-0.0941 z"
       id="path11"
       sodipodi:nodetypes="cccccc"
       inkscape:path-effect="#path-effect130"
       inkscape:original-d="m 771.87424,381.49104 59.44909,-60.04521 -0.41162,-32.2467 -59.41114,-59.848 -76.62398,75.55076 z"
       transform="matrix(1.0033319,0,0,1,-2.3175994,0)" />
    <path
       style="opacity:1;fill:#2974b3;fill-opacity:1"
       d="m 665.2026,488.96215 33.81547,-33.31842 a 0.14955603,0.14955603 67.979452 0 0 -0.10357,-0.25608 l -80.97538,-0.75571 a 0.52136059,0.52136059 113.28908 0 0 -0.38017,0.88322 l 32.05789,33.24736 a 10.962614,10.962614 0.73383438 0 0 15.58576,0.19963 z"
       id="path12"
       sodipodi:nodetypes="cccc"
       inkscape:path-effect="#path-effect129"
       inkscape:original-d="m 657.30882,496.7399 41.96574,-41.34889 -82.57842,-0.77067 z"
       transform="matrix(1.0339137,0,0,1,-21.62028,0)" />
    <path
       style="display:inline;opacity:1;fill:#60c9f8;fill-opacity:1"
       d="M 615.11584,452.17972 485.6206,325.59179 a 7.5794306,7.5794306 67.516494 0 1 -2.28061,-5.51037 l 1.82713,-153.1695 a 0.45300687,0.45300687 158.03402 0 1 0.77544,-0.31276 l 240.99345,244.25071 a 12.015448,12.015448 89.664349 0 1 0.0983,16.77718 l -22.35237,23.19179 a 3.1933379,3.1933379 156.74994 0 1 -2.2745,0.97721 l -86.57809,0.67125 a 1.0094964,1.0094964 21.952667 0 1 -0.7135,-0.28758 z"
       id="path13"
       sodipodi:nodetypes="cccccc"
       inkscape:path-effect="#path-effect128"
       inkscape:original-d="M 615.41333,452.47053 483.3013,323.32456 l 1.87877,-157.4982 249.98538,253.36418 -31.41532,32.5951 z"
       transform="matrix(1.0007134,0,0,1.0019328,-0.34482301,-0.09454141)" />
    <path
       style="opacity:1;fill:#2974b3;fill-opacity:1"
       d="m 480.50383,320.61069 0.97267,-155.76773 a 3.8926969,3.8926969 65.790534 0 0 -1.32735,-2.95219 l -56.35162,-49.3726 a 7.8140954,7.8140954 155.8378 0 0 -12.9633,5.81567 l -0.8368,105.99964 a 66.662441,66.662441 67.03673 0 0 20.67082,48.78433 z"
       id="path14"
       sodipodi:nodetypes="ccccc"
       inkscape:path-effect="#path-effect127"
       inkscape:original-d="m 480.50383,320.61069 0.98378,-157.54722 -70.51874,-61.78516 -1.19933,151.9232 z"
       transform="matrix(1,0,0,1.0179909,0,-3.3553284)" />
    <path
       style="display:inline;opacity:1;fill:#023d6b;fill-opacity:1;stroke-width:0.76317;stroke-dasharray:none;paint-order:stroke fill markers"
       d="m 647.58927,455.69978 -157.6373,-0.13929 a 9.5897157,9.5897157 45.095114 0 1 -9.58121,-9.61308 l 0.30951,-127.03125 c 0.18311,-75.14972 0.46227,-137.16419 0.62038,-137.80995 0.1581,-0.64576 0.30767,-10.88252 0.33237,-22.74835 l 0.0339,-16.26833 a 5.3177993,5.3177993 135.05517 0 1 5.31696,-5.30673 l 52.66568,-0.008 c 51.16547,-0.009 238.20988,-0.92476 278.01721,-1.34651 2.4057,-0.0255 6.30614,-0.0802 8.71195,-0.11446 l 1.3601,-0.0194 a 6.1216167,6.1216167 44.419878 0 1 6.20871,6.08423 c 0.004,0.67442 0.0108,1.82812 0.0181,2.57691 0.0244,2.49284 0.0734,4.96359 0.12955,6.64297 0.0322,0.96293 0.13854,2.5218 0.19048,3.48406 0.77714,14.39688 1.06707,66.81514 0.95866,171.6712 -0.0608,58.75715 -0.16141,108.74149 -0.2441,124.43007 -0.0149,2.82254 -2.32959,5.29407 -5.14792,5.34471 -14.05827,0.25258 -60.69315,0.27926 -182.26301,0.17184 z M 831.26869,296.36447 c 0,-76.73896 -0.17616,-141.17188 -0.40592,-154.09241 -0.0232,-1.30263 -1.13772,-2.42395 -2.44017,-2.44995 -27.20017,-0.54294 -281.25885,-0.88757 -318.42702,-0.39663 -0.94664,0.0125 -2.48159,0.0394 -3.42845,0.056 l -17.6718,0.31004 a 4.0410705,4.0410705 137.16645 0 0 -3.95266,3.6645 l 0,0 c -0.18506,1.98057 -0.46645,47.18982 -0.62531,100.46498 -0.15886,53.27517 -0.44236,122.02699 -0.63,152.78183 l -0.284,46.54795 a 9.3052139,9.3052139 45.150456 0 0 9.31294,9.36198 l 164.59114,-0.13978 168.8461,-0.14341 a 5.1194971,5.1194971 134.97567 0 0 5.11515,-5.11949 z"
       id="path40"
       inkscape:path-effect="#path-effect123"
       inkscape:original-d="M 647.58927,455.69978 480.34736,455.552 480.68027,318.91616 c 0.18311,-75.14972 0.46227,-137.16419 0.62038,-137.80995 0.1581,-0.64576 0.30767,-10.88252 0.33237,-22.74835 l 0.0449,-21.57424 57.9716,-0.009 c 53.40415,-0.009 254.83781,-1.00667 282.37305,-1.39891 l 11.88785,-0.16935 0.0444,7.39324 c 0.0244,4.06627 0.12381,8.44993 0.22083,9.74145 0.85966,11.44326 1.18198,63.75046 1.0686,173.4126 -0.0736,71.16094 -0.20567,129.45419 -0.29353,129.54056 -0.47302,0.46497 -35.29071,0.54043 -187.3615,0.40606 z M 831.26869,296.36447 c 0,-85.77843 -0.22011,-156.1809 -0.48914,-156.44994 -0.60399,-0.60402 -290.72023,-1.02065 -322.49797,-0.46313 l -23.00244,0.40356 -0.33647,3.60106 c -0.18506,1.98057 -0.46645,47.18982 -0.62531,100.46498 -0.15886,53.27517 -0.44236,122.02699 -0.63,152.78183 l -0.34117,55.91789 173.96125,-0.14774 173.96125,-0.14775 z"
       sodipodi:nodetypes="ccsssccscssssccssscssscccs"
       sodipodi:insensitive="true" />
  </g>
</svg>
