<?xml version="1.0" encoding="UTF-8" standalone="no"?>
<!-- Created with Inkscape (http://www.inkscape.org/) -->

<svg
   width="296.99997mm"
   height="210mm"
   viewBox="0 0 1122.5196 793.70081"
   version="1.1"
   id="svg1"
   inkscape:export-filename="dopalin.jpg"
   inkscape:export-xdpi="96"
   inkscape:export-ydpi="96"
   xmlns:inkscape="http://www.inkscape.org/namespaces/inkscape"
   xmlns:sodipodi="http://sodipodi.sourceforge.net/DTD/sodipodi-0.dtd"
   xmlns="http://www.w3.org/2000/svg"
   xmlns:svg="http://www.w3.org/2000/svg">
  <sodipodi:namedview
     id="namedview1"
     pagecolor="#ffffff"
     bordercolor="#000000"
     borderopacity="0.25"
     inkscape:showpageshadow="2"
     inkscape:pageopacity="0.0"
     inkscape:pagecheckerboard="0"
     inkscape:deskcolor="#d1d1d1"
     inkscape:document-units="mm">
    <inkscape:page
       x="0"
       y="0"
       width="1122.5197"
       height="793.70081"
       id="page2"
       margin="0"
       bleed="0" />
  </sodipodi:namedview>
  <defs
     id="defs1" />
  <g
     inkscape:label="Layer 1"
     inkscape:groupmode="layer"
     id="layer1">
    <path
       id="path1"
       style="fill:#392172;fill-opacity:1;fill-rule:evenodd;stroke:none;stroke-width:108.217;stroke-linecap:round;stroke-linejoin:round;stroke-miterlimit:0.9"
       d="m 647.95068,61.735463 c -2.12217,0.06268 -4.82479,5.177887 -7.02042,13.607377 -7.67804,29.47795 0.92652,68.01389 22.31067,99.90937 l 5.36305,8.00633 -5.907,-2.29479 c -20.45086,-7.93911 -55.84901,-15.77572 -79.91896,-17.78057 l -34.4052,-62.50389 -93.56884,18.46899 -4.25817,66.53255 c -10.55588,4.66997 -24.9368,12.41833 -36.19007,19.52292 -0.91772,0.57941 -1.7876,1.11363 -2.60929,1.61485 l -61.00801,-31.38793 -67.32298,67.56098 37.34593,63.9488 c -4.9136,10.87377 -8.98126,20.748 -11.83103,28.74462 -0.39077,1.09667 -0.751,2.10942 -1.08791,3.05129 l -63.25185,14.29581 -1.18988,0.0261 -0.0174,0.2463 -3.91818,0.88394 -8.19332,95.03075 69.04838,24.79245 c 2.72003,10.84777 7.36415,24.97722 11.33803,34.56668 l -36.15603,53.94512 -0.47594,0.45044 0.0936,0.12752 -3.66322,5.46505 61.69649,76.57876 61.77296,-29.79009 c 12.91697,9.63075 25.59924,17.85707 35.96055,23.3306 l 1.41937,0.74797 -1.24941,59.84359 -0.24629,1.38539 0.22106,0.0596 -0.0349,1.49588 102.9606,29.74758 30.46153,-63.80429 c 16.54599,-0.78944 35.64515,-3.75791 52.78918,-8.26984 6.13856,-1.61576 10.20996,-2.29365 11.00658,-1.84435 0.69535,0.39208 6.14801,8.08727 12.11154,17.1091 5.96353,9.02188 12.27147,17.98361 14.01534,19.91387 7.66373,8.48279 14.43924,9.05813 30.89498,2.62631 31.12435,-12.16507 54.54447,-32.27972 67.94345,-58.36474 8.56864,-16.68138 12.08033,-31.25713 12.19652,-50.57939 0.0392,-6.77869 0.26328,-12.32146 0.49296,-12.32399 0.22977,-0.003 4.46848,3.58445 9.41723,7.97235 7.1453,6.33547 9.10646,7.69284 9.5277,6.59547 0.86149,-2.24513 -0.38208,-28.50743 -1.77635,-37.49894 -2.46402,-15.88816 -6.61071,-30.13552 -13.75189,-45.00384 -0.67211,-1.39948 -13.35581,5.24325 -14.55081,2.43932 -1.40231,-3.29036 9.71513,-11.88917 9.00077,-13.15694 -8.94224,-15.87014 -20.79724,-30.56651 -24.4015,-29.85807 -0.86641,0.17016 -2.58945,4.29116 -5.20156,12.44301 -9.08092,28.33899 -23.6699,51.51925 -45.8113,72.77102 -31.0511,29.80368 -70.64838,47.75591 -114.22214,51.78627 -12.77765,1.18192 -33.95232,0.57028 -46.04074,-1.32585 -54.05967,-8.47966 -102.51148,-39.50249 -131.86676,-84.43213 -14.42754,-22.08195 -24.468,-48.8105 -28.73614,-76.48525 -2.06563,-13.37822 -2.07913,-40.30868 -0.0261,-53.46061 9.86245,-63.16138 48.57224,-115.82485 105.45937,-143.4853 27.19887,-13.225 54.35897,-19.54842 84.00715,-19.54842 29.62052,0 54.70397,5.97847 82.33277,19.62491 12.68149,6.26364 31.14656,17.30811 32.44187,19.40391 l 0.008,0.008 c 10e-4,0.004 -10e-4,0.0217 0,0.0261 6.5e-4,0.004 -2.1e-4,0.0217 0,0.0261 -0.0349,0.55796 -3.62082,2.83044 -8.21886,5.18458 -19.68001,10.07594 -33.64191,22.59078 -44.94431,41.8761 -1.07354,1.83174 -1.51585,2.63753 -1.3769,2.85577 l 0.008,0.008 0.008,0.008 0.008,0.008 c 0.12616,0.0997 0.47819,-0.0305 1.05392,-0.26371 12.68813,-5.17694 32.17162,0.5078 50.23938,6.1195 7.71687,2.3968 15.07781,6.1856 15.07781,7.76838 0,0.59648 -2.18566,1.96708 -4.85313,3.05125 -12.42182,5.04856 -20.4483,12.44657 -25.14946,22.04717 -2.92758,5.9785 -5.21379,14.45417 -5.23556,19.39545 l -0.0174,3.14472 8.4653,-4.24965 c 11.32142,-5.68123 15.82424,-5.61845 27.54626,-5.60104 12.11985,0.0174 17.78783,1.2783 31.00547,6.90994 17.72808,7.55345 39.51027,23.99531 55.79796,42.11404 7.58022,8.4323 17.30331,21.43529 21.08677,28.20071 6.23338,11.14625 7.9062,25.82544 3.89267,34.11623 -0.98438,2.03348 -1.78482,3.94416 -1.78482,4.24964 0,0.004 -7.9e-4,0.0217 0,0.0261 0.0958,0.34117 1.65984,1.38608 3.55268,2.36282 2.49197,1.28582 5.5497,1.94283 10.2587,2.20131 11.03538,0.60627 20.23898,-2.541 28.04769,-9.59572 2.29359,-2.07208 3.68481,-2.75032 4.8786,-2.37129 2.09931,0.66628 5.17089,4.28902 8.18482,9.6552 2.88106,5.12964 4.15748,5.24901 10.76863,0.96891 10.71627,-6.93779 19.45877,-20.90191 25.01347,-39.94671 2.99346,-10.26336 6.25549,-30.05064 6.25549,-37.9664 0,-9.7084 -1.28547,-11.6078 -7.93835,-11.68657 -9.21827,-0.10928 -25.80861,-16.92806 -34.60921,-35.08513 l -3.84167,-7.92135 0.0174,-9.21326 c 0.0135,-5.06552 0.34335,-12.78909 0.73944,-17.16858 0.85775,-9.48236 0.12657,-12.64922 -6.196,-26.66235 -2.29733,-5.09177 -4.95931,-12.17652 -5.9155,-15.74069 -5.49425,-20.4801 -9.49611,-32.012 -15.35827,-44.24739 -8.96643,-18.71472 -16.40718,-28.53335 -40.06571,-52.88271 -32.26219,-33.20431 -40.36316,-44.50714 -46.13423,-64.33972 -2.3233,-7.984 -3.24328,-9.44734 -5.70305,-9.09428 -3.48066,0.49956 -4.25817,4.14468 -4.25817,19.89689 0,16.85736 1.41098,23.93243 7.03744,35.3146 1.76124,3.56299 3.05163,6.47646 2.87278,6.47646 -0.938,0 -23.23766,-20.1895 -34.03973,-30.81848 -27.56503,-27.12366 -39.76194,-46.486693 -46.07475,-73.136513 -1.07377,-4.533077 -2.30398,-8.585066 -2.72826,-9.009257 -0.34638,-0.346395 -0.71194,-0.504579 -1.10492,-0.492961 z M 762.67431,305.00258 c 0.10537,-0.008 0.24587,0.0135 0.42516,0.0679 10.43433,3.16555 16.24639,5.15826 18.75794,6.43395 9.82944,4.99251 17.71058,19.68406 19.35294,36.08805 0.45957,4.59065 0.39339,4.61492 -8.19332,2.74528 -6.56268,-1.42894 -10.21792,-3.0052 -13.5989,-5.85601 -3.84663,-3.24336 -5.57263,-7.05489 -7.65789,-16.95613 -2.13643,-10.1442 -3.41334,-13.45268 -7.28391,-18.86843 -1.84445,-2.58078 -2.37007,-3.60626 -1.80184,-3.65473 z m -207.65504,51.41234 c -5.18325,0.11928 -10.29003,0.64222 -13.53088,1.52987 -10.71462,2.93462 -19.19932,7.8846 -27.16378,15.84268 -7.63088,7.62482 -12.13822,15.11034 -14.95879,24.84349 -10.15617,35.04685 13.93353,71.52202 49.95892,75.64382 5.94953,0.68012 8.95147,0.67681 14.47432,0 24.83066,-3.04294 44.7638,-20.50412 51.05532,-44.73186 2.49949,-9.62532 2.01381,-23.63879 -1.13891,-32.90931 -6.82542,-20.07018 -23.77247,-34.97187 -44.72334,-39.31777 -3.52839,-0.7319 -8.78958,-1.0202 -13.97286,-0.90092 z m 299.09907,51.20829 c 1.38408,0.0748 3.05037,0.89691 4.83611,2.46481 3.25008,2.85359 4.94381,6.55418 6.39996,13.95585 0.5535,2.8133 0.87212,5.42798 0.70545,5.81354 v 0.008 l -0.008,0.008 -0.008,0.008 v 0.008 h -0.008 l -0.008,0.008 -0.008,0.008 h -0.008 c -0.34726,0.1584 -2.09043,-1.17125 -4.04568,-3.11078 -2.08561,-2.06881 -5.16823,-4.80626 -6.85892,-6.07698 -3.73977,-2.81087 -5.60423,-7.81347 -4.1222,-11.0661 0.65432,-1.43595 1.7522,-2.10616 3.13625,-2.03135 z" />
  </g>
</svg>
